# xmcd CD database file
#
# Track frame offsets:
#	157
#	7935
#	19102
#	30600
#	41250
#	50537
#	61342
#	72005
#	82017
#	97650
#	110657
#	120787
#	132950
#	147107
#	161767
#	174245
#	187225
#	195410
#	206675
#	218582
#	231322
#
# Disc length: 3376 seconds
#
# Revision: 0
# Processed by: cddbd v1.5.2PL0 Copyright (c) Steve Scherf et al.
# Submitted via: Feurio! 1.68 - http://www.feurio.com
#
DISCID=130d2e15
DTITLE=Various Artist - The Goldband Blues Collection, Part 3
DYEAR=1900
DGENRE=blues
TTITLE0=Big Chenier - Going To The City
TTITLE1=Bill Parker and Ola Vaughn - Baby Why Why Why
TTITLE2=Shelton Dunaway and The Cupcakes - Keep Living
TTITLE3=Little Miss Peggie With Bill Parker - These Tears Of Love
TTITLE4=Little Miss Peggie With Bill Parker - Freddie Freddie
TTITLE5=Blues Boy Palmer - All Day All Night
TTITLE6=Blues Boy Palmer - Deep In My Heart
TTITLE7=Little Miss Peggie With Bill Parker - Peggie's Blues
TTITLE8=Scottie Milford and Lonesome Sundown - Shame Shame On You Baby
TTITLE9=Nat Eckbert With Bill Parker Band - Ain't Giving Up Nothing
TTITLE10=Scottie Milford - Happy Days Are Gone
TTITLE11=Rockin' Sidney - Boogie In The Mud
TTITLE12=Rockin' Sidney - Gotta Keep In Pushing
TTITLE13=Thaddeus Decoulet - Want You All For Myself
TTITLE14=Big Chenier - I Wanna Know I Know Now
TTITLE15=The Yellow Jackets - So What [original]
TTITLE16=Ivory Jackson - Clautelia
TTITLE17=Charles Perrywell and The Fairlanes - You're Lonesome Now
TTITLE18=Hop Wilson - Rockin' In The Coconut Top [original]
TTITLE19=Hop Wilson - 'Broke And Hungry
TTITLE20=Cookie and The Cupcakes - In The Evening
EXTD=
EXTT0=
EXTT1=
EXTT2=
EXTT3=
EXTT4=
EXTT5=
EXTT6=
EXTT7=
EXTT8=
EXTT9=
EXTT10=
EXTT11=
EXTT12=
EXTT13=
EXTT14=
EXTT15=
EXTT16=
EXTT17=
EXTT18=
EXTT19=
EXTT20=
PLAYORDER=
